<svg t="1649840081232" class="icon" viewBox="0 0 1024 1024" version="1.1" xmlns="http://www.w3.org/2000/svg" p-id="2611" width="128" height="128"><path d="M592.310857 661.796571c60.416-47.542857 67.072-49.956571 84.992-27.428571 15.579429 19.236571 12.214857 22.674286-91.721143 113.371429-34.669714 30.573714-63.780571 62.317714-63.780571 71.387428 0 7.899429-8.923429 14.774857-19.017143 14.774857-10.020571 0-46.957714 19.236571-81.481143 44.251429-68.242286 48.713143-193.462857 103.131429-237.129143 103.131428-71.460571 0-67.072-71.314286 5.632-91.721142 124.123429-34.084571 251.611429-106.569143 402.432-227.766858z m-46.811428-200.630857c14.482286-5.705143 39.058286-8.045714 54.784-5.632 15.579429 1.097143 51.346286 5.705143 80.457142 9.069715 128.512 14.774857 224.548571 132.681143 214.601143 259.657142-5.558857 70.217143-24.576 106.496-81.627428 158.573715-89.453714 81.554286-214.674286 121.270857-257.097143 82.651428-27.940571-26.038857-50.322286-81.627429-41.325714-103.131428 5.558857-15.945143 10.093714-15.945143 41.325714 1.170285 70.436571 36.205714 171.008-2.267429 229.156571-87.332571 58.148571-86.162286 33.499429-180.297143-46.957714-180.297143-29.037714 0-40.228571-6.729143-51.346286-31.670857-21.357714-44.178286-63.780571-46.372571-111.908571-4.461714-223.451429 196.022857-431.396571 302.592-478.354286 245.906285-30.208-36.205714-6.729143-54.345143 117.321143-90.697142 42.569143-12.507429 112.932571-49.737143 191.122286-103.131429 111.835429-74.752 124.123429-86.089143 119.734857-112.201143-4.534857-21.504 0-30.573714 20.041143-38.473143zM354.230857 50.834286c60.342857-12.434286 257.024-10.24 307.346286 3.364571 95.085714 25.014857 110.665143 41.910857 138.678857 159.963429 16.749714 70.290286 15.652571 102.034286-4.534857 150.674285-22.308571 55.588571-64.804571 69.193143-201.142857 68.022858-109.714286-1.097143-111.835429 0-130.925715 29.476571-23.405714 38.473143-118.491429 114.468571-160.914285 130.340571-128.512 46.372571-200.118857 50.980571-211.309715 14.628572-11.117714-35.108571 13.458286-56.612571 66.048-56.612572 65.828571 0 174.299429-44.251429 205.531429-82.797714 12.288-13.604571 4.461714-17.042286-48.054857-21.577143-70.363429-5.558857-95.012571-28.306286-108.324572-99.693714-12.434286-61.147429-10.093714-168.813714 2.194286-193.828571 13.458286-23.698286 50.322286-29.476571 62.610286-9.069715 4.534857 7.972571 7.899429 49.883429 8.996571 95.232 2.194286 124.708571 8.923429 130.413714 172.178286 124.708572 72.704-2.340571 151.990857-4.608 178.834286-5.705143 71.533714 0 96.109714-30.646857 87.186285-109.933714-7.826286-71.314286-23.552-100.790857-62.683428-115.565715-34.523429-14.848-231.350857-19.309714-309.540572-6.875428-58.148571 7.972571-59.245714 7.972571-59.245714-20.48 0-33.865143 12.214857-42.934857 67.072-54.272z m-2.340571 167.716571c7.826286-9.069714 50.395429-13.531429 133.046857-12.507428 158.72 1.170286 150.820571-1.170286 146.432 35.108571l-3.364572 30.646857-139.702857 1.097143c-125.220571 0-139.849143-2.194286-143.140571-20.406857a49.444571 49.444571 0 0 1 6.729143-33.938286z" p-id="2612"></path></svg>
