<svg t="1650426920085" class="icon" viewBox="0 0 1024 1024" version="1.1" xmlns="http://www.w3.org/2000/svg" p-id="2456" width="64" height="64"><path d="M213.333333 170.666667h597.333334a128 128 0 0 1 128 128v341.333333a128 128 0 0 1-128 128H213.333333a128 128 0 0 1-128-128V298.666667a128 128 0 0 1 128-128z m627.498667 499.498666A42.666667 42.666667 0 0 0 853.333333 640V298.666667a42.666667 42.666667 0 0 0-42.666666-42.666667H213.333333a42.666667 42.666667 0 0 0-42.666666 42.666667v341.333333a42.666667 42.666667 0 0 0 42.666666 42.666667h597.333334a42.666667 42.666667 0 0 0 30.165333-12.501334zM554.666667 459.946667l145.066666-110.08-0.426666 1.28a42.666667 42.666667 0 0 1 51.2 68.266666l-170.666667 128a42.666667 42.666667 0 0 1-49.066667 0l-98.986666-65.706666-103.253334 103.253333a42.666667 42.666667 0 1 1-60.16-60.16l128-128a42.666667 42.666667 0 0 1 53.76-5.546667L554.666667 459.946667zM298.666667 810.666667h426.666666a42.666667 42.666667 0 0 1 0 85.333333H298.666667a42.666667 42.666667 0 0 1 0-85.333333z" p-id="2457"></path></svg>
