<svg t="1648127352370" class="icon" viewBox="0 0 1024 1024" version="1.1" xmlns="http://www.w3.org/2000/svg" p-id="964" width="128" height="128"><path d="M344.021333 138.666667a32 32 0 0 1 28.586667 17.706666l130.688 261.333334a32 32 0 1 1-57.258667 28.586666L343.978667 242.218667 241.962667 446.293333a32 32 0 1 1-57.258667-28.586666l130.688-261.333334a32 32 0 0 1 28.586667-17.706666z" p-id="965"></path><path d="M437.333333 389.333333H250.666667v-64h186.666666v64zM554.666667 170.666667a32 32 0 0 1 32-32H682.666667A160 160 0 0 1 842.666667 298.666667v5.333333a160 160 0 0 1-160 160h-96a32 32 0 0 1-32-32V170.666667z m64 32v197.333333H682.666667a96 96 0 0 0 96-96V298.666667A96 96 0 0 0 682.666667 202.666667h-64zM277.333333 597.333333a42.666667 42.666667 0 0 1 42.666667-42.666666h384a42.666667 42.666667 0 1 1 0 85.333333h-384a42.666667 42.666667 0 0 1-42.666667-42.666667zM277.333333 725.333333a42.666667 42.666667 0 0 1 42.666667-42.666666h256a42.666667 42.666667 0 1 1 0 85.333333h-256a42.666667 42.666667 0 0 1-42.666667-42.666667z" p-id="966"></path><path d="M170.666667 533.333333a42.666667 42.666667 0 0 1 42.666666 42.666667v213.333333a42.666667 42.666667 0 0 0 42.666667 42.666667h512a42.666667 42.666667 0 0 0 42.666667-42.666667v-213.333333a42.666667 42.666667 0 1 1 85.333333 0v213.333333a128 128 0 0 1-128 128H256a128 128 0 0 1-128-128v-213.333333a42.666667 42.666667 0 0 1 42.666667-42.666667z" p-id="967" ></path></svg>
