<?xml version="1.0" standalone="no"?><!DOCTYPE svg PUBLIC "-//W3C//DTD SVG 1.1//EN" "http://www.w3.org/Graphics/SVG/1.1/DTD/svg11.dtd"><svg t="1602668061148" class="icon" viewBox="0 0 1170 1024" version="1.1" xmlns="http://www.w3.org/2000/svg" p-id="4328" xmlns:xlink="http://www.w3.org/1999/xlink" width="228.515625" height="200"><defs><style type="text/css"></style></defs><path d="M544.818225 665.502476c0-42.910476 8.777143-83.968 24.185905-121.075809-2.82819-0.341333-5.607619-0.926476-8.630858-1.121524a36.571429 36.571429 0 0 1 8.045715 0.975238c-16.481524-3.413333-28.818286-19.894857-28.818286-39.545905 0-9.947429 3.169524-19.114667 8.582095-26.428952 20.041143-21.942857 37.692952-48.713143 51.541334-78.116572 21.552762 2.633143 47.981714-13.653333 64.463238-41.935238 19.846095-34.133333 17.212952-72.704-5.656381-86.016a36.961524 36.961524 0 0 0-25.84381-3.218285v-1.26781h0.975238V156.038095h-1.170285C626.88451 94.598095 577.244891 46.08 515.609844 44.958476A162.084571 162.084571 0 0 0 403.945082 0C316.953844 0 246.20032 69.144381 240.592701 156.038095h-0.390095v111.664762h0.926476v1.316572a36.961524 36.961524 0 0 0-25.84381 3.218285c-22.869333 13.116952-25.502476 51.687619-5.656381 85.967238 16.530286 28.476952 42.715429 44.617143 64.463239 41.984 13.848381 29.744762 31.695238 56.758857 52.272761 79.043048 5.266286 6.972952 8.630857 16.091429 8.630858 26.428952 0 18.724571-11.215238 34.133333-26.624 38.619429a907.946667 907.946667 0 0 0-205.141334 53.589333A177.152 177.152 0 0 0 0.001463 759.515429v23.600761a117.51619 117.51619 0 0 0 82.066286 112.786286 1561.502476 1561.502476 0 0 0 591.481904 22.918095c-77.970286-57.539048-128.731429-149.357714-128.731428-253.318095z" p-id="4329"></path><path d="M856.943177 353.328762a312.07619 312.07619 0 0 0-287.744 191.146667 310.125714 310.125714 0 0 0-24.185905 121.027047 311.686095 311.686095 0 0 0 128.877715 252.732953 312.173714 312.173714 0 1 0 183.05219-564.857905z m-214.113524 204.8l-3.949714-11.995429h88.600381l13.507048 40.277334 38.424381 115.809523 27.501714-82.992761 24.185905-73.289143h88.600381l-53.394286 160.768-20.577524 62.171428h-133.022476l-69.87581-210.748952z m358.595048 211.139048l-66.511238 89.185523H846.02051l13.653334-18.529523 52.857905-70.656 74.020571-222.939429h88.454095l-73.630476 222.939429z" p-id="4330"></path><path d="M847.190796 858.258286c4.729905-5.802667 8.825905-11.800381 12.580572-18.529524l-13.653334 18.529524h1.072762z" p-id="4331"></path></svg>