<svg t="1649660792131" class="icon" viewBox="0 0 3006 1024" version="1.1" xmlns="http://www.w3.org/2000/svg" p-id="1876" width="128" height="128"><path d="M2457.556919 857.754097h-32.512828L2342.938511 858.304207v-78.105683h81.002046a14.803262 14.803262 0 0 0 14.879482-14.849657v-146.862809l-87.616622 30.252738v-92.95534l87.616622-30.252738v-150.710265h-87.616622v-84.703689h87.616622V192.20712h91.474019v98.45644H2581.540453v36.850744c0 25.855172-22.040854 47.306149-48.492531 47.306149h-2.753864v116.606757L2581.540453 471.626563v60.505476c0 19.250537-12.672414 36.850744-30.859184 44.002175l-20.387211 7.70154v206.814861c0 48.953165-22.594278 67.103482-72.737139 67.103482zM1717.168466 193.870706a2183.96334 2183.96334 0 0 1-9.494369 36.363598H1897.743741c22.574395 0 40.741282 14.322744 40.741282 36.913709 0 22.58765-18.166887 36.913709-40.741282 36.913709H1838.23244c-3.045489 14.481812-7.39666 32.260971-13.583741 51.236453H1928.02299c22.574395 0 40.741282 14.326058 40.741282 36.913708 0 22.590964-18.166887 36.913709-40.741282 36.913709H1855.50457c20.70866 20.095586 41.649294 39.535016 65.363676 56.197385 4.404194 3.307288 8.258278 7.714796 9.358498 13.775949 0.55011 2.753864 0 5.507728-1.10022 8.264906-2.753864 7.711482-16.516557 35.260065-25.875055 45.175301-2.753864 3.307288-5.507728 4.407508-9.911922 2.203754-10.203547-4.881398-19.336699-11.913528-28.261075-18.786589l-0.009941-0.006628-0.013256-0.009942-0.009942-0.009942c-2.137476-1.643702-4.26501-3.280777-6.389229-4.878084-17.066667-13.222524-33.583223-26.995159-48.99956-42.421437-15.661566-15.674822-20.045877-20.791508-30.604013-33.109333l-3.552518-4.139081c-29.821929 40.095068-60.005074 73.784337-82.556272 98.403418 0 0-9.908608 10.46866-10.458718 10.46866-1.103534 1.10022-2.203754 2.203754-3.303974 2.753864-4.404194 3.307288-9.911922 4.957618-15.966447 4.407508-4.954304-0.55011-10.462032-2.203754-13.762693-5.507728l-3.854084-3.857398-33.583223-36.913709 0.062964-0.062964 0.192207-0.182266c3.761294-3.608854 47.736958-45.818201 83.808933-91.765644h-92.322382v-73.827417h135.462938c6.081036-16.211676 11.091676-33.374447 16.055922-51.236453h-70.235132a449.400129 449.400129 0 0 1-8.062758 20.934006s-1.65033 3.307288-1.65033 4.407508c-2.753864 4.960932-7.158058 8.264906-13.212582 9.91855-4.954304 1.653644-9.911922 1.10022-14.316117-0.55011l-4.404194-2.203754-41.288077-27.548582 0.162381-0.298253 0.231975-0.424181 0.009941-0.016569c4.460531-8.125722 26.580919-48.396427 42.537424-113.859521l72.120751-0.55011zM2218.494343 228.660194H1991.66343v291.624596H2225.152c19.963029-2.76712 34.938615-19.919948 34.938615-40.396635V269.610252C2259.537191 246.919871 2241.234434 228.660194 2218.494343 228.660194z m-34.938615 83.003651v128.934524h-117.574421V300.045256h105.929321c6.097605 0 11.6451 4.980816 11.6451 11.618589z m-12.742006 257.95521H1694.043961v290.352052h467.961372c1.10022 0 12.662472-0.55011 12.662473-0.55011 19.817217-2.753864 36.333773-18.733566 36.333773-39.117463V610.390162c0.55011-22.58765-17.616777-40.771107-40.187857-40.771107z m-53.403754 69.419909c7.158058 0 12.662472 5.511042 12.662472 12.672415v33.609734H1775.52321v-47.932479l341.886758 1.65033z m0 106.333619c7.158058 0 12.662472 5.511042 12.662472 12.672414v33.609734H1775.52321v-47.932479l341.886758 1.650331zM2725.755443 278.716893l-15.413022 147.654835c-2.203754 7.714796-12.662472 13.222524-21.470861 13.772634h-69.370201l18.170201-219.278498c0-7.161372 5.504414-22.58765 24.774835-22.58765h231.225165c18.716997 0 33.583223 14.876168 33.583223 33.60642v117.352389c0 6.614576 4.954304 15.979702 12.112363 15.979702H2966.892531c22.024285 0.55011 39.641061 17.079922 39.641061 37.463819 0 20.38721-17.616777 36.913709-39.641061 37.463818h-96.895586c-18.716997 0-34.133333-14.872854-34.133333-33.60642l0.553424-127.821049h-110.661593z m148.64901 419.273321l1.65033-1.650331c9.908608-9.91855 21.470861-23.691184 32.483003-37.467132 37.437307-46.278835 63.862472-94.761424 73.771081-139.940039h-0.55011c0.55011-2.203754 0.55011-4.407508 0.55011-6.611262 0-22.03754-17.066667-40.220997-37.987417-40.220997H2618.951249v80.43868h249.395366c-15.413023 32.506201-42.391612 69.973333-84.783223 107.987262-29.179029-23.137761-51.2-46.278835-64.412583-69.41991h-94.141722c11.562252 35.260065 51.75011 77.134706 92.491392 117.905813-45.145476 29.749023-84.233113 52.890097-132.129139 77.131391 2.61468 4.241812 5.12 8.341126 7.5491 12.317826 8.304673 13.593683 15.737786 25.759068 23.830369 37.268297 16.516557 23.141074 26.975275 25.344828 53.403754 11.568881 48.446136-25.894939 82.579469-49.032699 123.870861-80.43868l1.65033 1.103534c62.212142 43.524971 90.287638 59.501359 138.737087 82.642434 9.358498 4.407508 22.571081 2.753864 29.72914-3.857398 15.413023-13.772634 34.133333-71.073553 34.133333-71.073554-44.041942-15.426278-93.591612-38.013929-138.737087-64.458977 5.504414-3.307288 10.462032-8.264906 14.866226-13.225838zM664.602511 269.348453H272.334291c12.102421-31.956091 18.703741-57.297605 20.904181-73.827417H197.509385c-3.30066 18.180142-11.002201 43.524971-24.208155 73.827417H39.061126v81.5389h92.978537C97.929528 409.838602 53.367301 472.647249 0 522.783482l45.665761 49.036013c9.901981 11.01877 26.955392 11.01877 37.410796 0.55011 16.503301-17.079922 32.459806-34.709955 47.312776-53.440207V861.618123h81.422913v-126.167405h371.914149v36.913709c0 7.161372-5.5011 12.672414-12.652531 12.672414h-64.919612V861.618123h124.888233c18.703741 0 34.110136-15.426278 34.110136-34.159845V430.775922c0-18.733566-15.406395-34.159845-34.110136-34.159844H212.91578c8.801761-15.426278 17.053411-30.852557 24.204841-45.728725h428.032A40.648492 40.648492 0 0 0 705.864078 310.11956c-0.55011-22.03754-18.707055-40.771107-41.261567-40.771107z m-80.876116 389.520984H211.81556v-52.339987h371.910835v52.339987z m-13.202641-180.161036c7.15143 0 12.652531 5.511042 12.652531 12.672415v38.567352H211.81556v-51.239767H570.523754z m633.938848 321.920415h280.80466c13.215896 0 24.228039 10.541566 25.878369 22.750032v4.994071c-1.65033 12.205152-11.012142 22.193294-23.124505 23.303456H805.281553v-51.600983h312.187444v-27.19068h-268.688984V724.057476h268.688984v-23.860194h-247.768233V490.459547h555.001372c14.316117 0 26.428479 11.651728 26.978589 26.077204v158.136751c-0.55011 14.42879-12.112362 26.080518-26.978589 26.080517h-220.239534v23.856881h244.464259c13.215896 0 24.228039 11.098304 24.228039 24.416932 0 12.76189-9.361812 23.303456-21.474175 24.413618h-247.218123v27.187366z m149.762485-267.446266h-149.762485v39.395832h162.978382v-26.077204c0-7.214395-6.057838-13.318628-13.215897-13.318628z m0 82.122149h-149.762485v39.949256h162.978382v-26.633942c0-7.211081-6.057838-13.315314-13.215897-13.315314zM956.694369 654.700531h160.224518v-39.395832H956.694369v39.395832z m0-82.122149h160.224518v-39.395832H956.694369v39.395832zM1399.506434 206.54312H885.85279v196.687534h513.653644c14.862913 0 27.525385-12.11899 27.525385-27.545269V233.538278c0-14.876168-12.112362-26.995159-27.525385-26.995158z m-60.008389 150.958809H973.386563v-33.056311h352.895586c7.158058 0 13.215896 6.061152 13.215896 13.222524v19.833787z m0-69.41991H973.386563V254.475599h352.895586c7.158058 0 13.215896 6.057838 13.215896 13.222524v20.383896z m144.791612 185.121968a25.858485 25.858485 0 0 0 25.875055-25.894938 25.855172 25.855172 0 0 0-25.875055-25.894939H802.719896v51.789877h681.569761z" p-id="1877"></path></svg>
