<svg t="1649661045212" class="icon" viewBox="0 0 1078 1024" version="1.1" xmlns="http://www.w3.org/2000/svg" p-id="2297" width="128" height="128"><path d="M1074.163159 811.894412c-2.608954-9.129377-4.56665-16.297134-7.830785-24.120072-0.651258-1.957696-1.957696-4.562727-2.608954-6.520423l-0.655181-1.953773c-4.56665-9.776711-10.439738-24.120072-16.964084-37.156995-35.885865-63.882097-274.049998-498.667187-329.512824-596.446066-8.485965-14.339438-18.270523-28.031541-27.407746-41.719721-16.312827-24.116149-38.498742-56.059159-52.198692-66.487128-10.439738-7.822938-24.143611-18.250907-34.58335-22.817556-86.782042-39.762025-151.382091 13.036922-162.473087 22.166299-20.8834 17.599649-57.420523 73.658808-57.420523 73.658808s-20.228219 36.501814-39.80518 70.398596C263.751496 319.088543 63.430924 671.744553 34.069405 740.840634c-5.873088 13.036922-11.746177 27.37636-16.312826 37.156995 0 0-19.576961 51.496432-17.615342 80.830488 1.302515 14.339438 0.647334 94.518668 76.33838 140.145935 29.365442 16.948391 62.642353 26.725102 94.616749 24.77133 80.257695-5.865242 110.270472-51.496432 129.847433-73.658808 9.1333-14.343361 15.006388-21.511118 16.312827-24.120072 54.807646-77.570277 131.80513-232.710831 131.80513-232.710831h-125.935965l135.069265-236.6223 59.378219-102.992864c3.915392-5.869165 8.485965-9.780634 13.703873-11.083149 3.264135-1.302515 6.524346-1.302515 9.78848-1.302516 8.482042-0.651258 13.703873 5.865242 18.921781 14.339438l58.07178 99.732653 0.655181 1.957696 131.80513 235.319785h-118.756438s8.482042 22.162376 22.837173 54.101462l0.655181 1.957696a1221.771094 1221.771094 0 0 0 25.446127 56.059159c22.185915 46.282448 48.287223 96.472441 73.082091 129.717967 0.651258 0.651258 7.826861 11.08315 20.879477 24.120072 24.794869 25.422587 71.124396 62.575658 135.720522 64.533354 35.889788 1.953773 67.860261-9.776711 95.268007-28.682798v0.651257a127.073704 127.073704 0 0 0 15.006388-11.079226c15.006388-13.036922 27.403823-28.682799 37.192304-46.282448 2.608954-4.562727 5.873088-9.776711 8.482042-15.645876 2.608954-5.213984 3.264135-8.474196 5.221831-15.641953 1.302515-5.217908 2.608954-11.08315 3.915392-16.297134 1.957696-11.734407 3.260211-22.817557 3.260212-35.199298 0.651258-14.994619-0.651258-29.334056-4.56665-43.022236zM374.021968 143.74331l0.655181-0.655181-1.306439 1.306438 0.651258-0.651257z" p-id="2298"></path></svg>
