<svg t="1635298298774" class="icon" viewBox="0 0 1138 1024" version="1.1" xmlns="http://www.w3.org/2000/svg" p-id="3189" width="128" height="128"><path d="M155.065341 830.173818a42.64176 42.64176 0 0 0 59.698464-9.303657l166.690517-228.714894 249.389687 125.082496a56.85568 56.85568 0 0 0 66.934642-13.18018l377.831837-425.900731a42.64176 42.64176 0 0 0-63.833423-56.597245l-361.808873 409.360896-251.198731-126.116235a56.85568 56.85568 0 0 0-71.328035 17.315139l-180.904437 248.097512A42.64176 42.64176 0 0 0 155.065341 830.173818z m982.052655 146.015724a42.383325 42.383325 0 0 0-42.64176-34.113408H82.445132V44.014825A42.64176 42.64176 0 0 0 48.073289 0.59776 41.091151 41.091151 0 0 0 0.004396 41.68891v930.365673a51.686982 51.686982 0 0 0 51.686982 51.686982h1044.593902A41.091151 41.091151 0 0 0 1137.117996 976.189542z" p-id="3190"></path></svg>
