<svg t="1648436390614" class="icon" viewBox="0 0 1024 1024" version="1.1" xmlns="http://www.w3.org/2000/svg" p-id="994" width="128" height="128"><path d="M512 128a128 128 0 0 0-128 128H192a64 64 0 0 0 0 128h640a64 64 0 1 0 0-128h-192a128 128 0 0 0-128-128zM243.456 449.28a64 64 0 0 1 75.328 50.176l43.392 217.088a64 64 0 0 0 62.72 51.456H599.04a64 64 0 0 0 62.784-51.456l43.392-217.088a64 64 0 0 1 125.568 25.088l-43.456 217.088A192 192 0 0 1 599.04 896H424.96a192 192 0 0 1-188.288-154.368l-43.456-217.088a64 64 0 0 1 50.24-75.328z" p-id="995"></path></svg>
