<svg t="1648870063615" class="icon" viewBox="0 0 1024 1024" version="1.1" xmlns="http://www.w3.org/2000/svg" p-id="1775" width="128" height="128"><path d="M351.50848 440.85418667l7.82848 0.28672h-7.82848v159.80032l160.09216 80.04608V508.58666667l-160.09216-80.04608v12.3136zM672.06656 415.84810667l-148.15744-74.2656-57.12896 28.66688 148.86912 74.04544 56.41728-28.44672zM440.96 384.22186667l-65.20832 32.00512 148.14208 73.50272 67.84512-32.85504-150.77888-72.6528zM536.2176 680.99242667l160.08704-80.04608v-172.39552l-160.08704 80.04608v172.39552z"  p-id="1776" data-spm-anchor-id="a313x.7781069.0.i0" class="selected"></path><path d="M523.90912 171.30154667c-189.67552 0-343.43936 153.76384-343.43936 343.43936s153.76384 343.43936 343.43936 343.43936 343.43936-153.76384 343.43936-343.43936-153.76384-343.43936-343.43936-343.43936z m197.02784 441.95328l-197.02784 98.5088-197.02784-98.5088v-197.20704h0.36864l196.6592-98.3296 197.0176 98.5088h0.01024v197.02784z" p-id="1777" data-spm-anchor-id="a313x.7781069.0.i1" class="selected"></path></svg>
