<svg t="1628738614593" class="icon" viewBox="0 0 1024 1024" version="1.1" xmlns="http://www.w3.org/2000/svg" p-id="31187" width="128" height="128"><path d="M839.488 445.12l0.192 0L525.696 112.512c-8.128-8.128-21.44-8.128-29.568 0L184.768 444.928C182.144 446.976 180.48 449.536 180.48 452.416c0 6.848 8.96 12.288 20.224 12.288 0 0 0.064 0 0.192 0l0 0 156.928 0c11.84 6.72 27.008 19.456 32.384 42.24l0 129.664c0 23.168 18.816 41.856 41.92 41.856l159.744 0c23.104 0 41.856-18.688 41.856-41.856L633.728 501.504c4.032-8.704 13.632-26.112 29.632-36.8l166.144 0 0-0.64c8.256-1.6 14.144-6.144 14.144-11.648C843.648 449.664 842.112 447.168 839.488 445.12z" p-id="31188"></path><path d="M390.272 721.728l0 17.92c0 23.04 18.816 41.856 41.92 41.856l159.808 0c23.168 0 41.92-18.816 41.92-41.856l0-17.92L390.272 721.728z" p-id="31189"></path><path d="M960 721.728c-0.256-11.968-11.264-21.568-24.832-21.568-13.696 0-24.768 9.6-24.832 21.568l-0.832 0 0 102.976c0 28.864-23.36 52.288-52.224 52.288L166.08 876.992c-28.864 0-52.288-23.424-52.288-52.288l0-102.976L113.664 721.728c-0.064-11.968-11.136-21.568-24.832-21.568-13.568 0-24.576 9.6-24.832 21.568l0 0 0 91.2c0 57.856 46.656 104.704 104.256 104.704l687.488 0c57.536 0 104.256-46.784 104.256-104.704L960 721.728 960 721.728z" p-id="31190"></path></svg>
