<svg t="1650939747642" class="icon" viewBox="0 0 1024 1024" version="1.1" xmlns="http://www.w3.org/2000/svg" p-id="9009" width="64" height="64"><path d="M927.5 336.4c-22.7-53.7-55.2-101.9-96.6-143.3-41.4-41.4-89.6-73.9-143.3-96.6C631.9 72.9 572.9 61 512 61c-60.9 0-119.9 11.9-175.6 35.5-53.7 22.7-101.9 55.2-143.3 96.6-41.4 41.4-73.9 89.6-96.6 143.3C72.9 392.1 61 451.1 61 512c0 60.9 11.9 119.9 35.5 175.6 22.7 53.7 55.2 101.9 96.6 143.3 41.4 41.4 89.6 73.9 143.3 96.6C392.1 951.1 451.1 963 512 963c60.9 0 119.9-11.9 175.6-35.5 53.7-22.7 101.9-55.2 143.3-96.6s73.9-89.6 96.6-143.3C951.1 631.9 963 572.9 963 512c0-60.9-11.9-119.9-35.5-175.6zM512 893c-210.1 0-381-170.9-381-381s170.9-381 381-381 381 170.9 381 381-170.9 381-381 381z" p-id="9010"></path><path d="M694.1 326.1c-13.7-13.7-35.8-13.7-49.5 0L517.3 453.4 390 326.1c-13.7-13.7-35.8-13.7-49.5 0-13.7 13.7-13.7 35.8 0 49.5l127.3 127.3-127.3 127.4c-13.7 13.7-13.7 35.8 0 49.5 6.8 6.8 15.8 10.3 24.7 10.3s17.9-3.4 24.7-10.3l127.3-127.3 127.3 127.3c6.8 6.8 15.8 10.3 24.7 10.3s17.9-3.4 24.7-10.3c13.7-13.7 13.7-35.8 0-49.5L566.8 502.9l127.3-127.3c13.7-13.7 13.7-35.8 0-49.5z" p-id="9011"></path></svg>
