<svg t="1628737674797" class="icon" viewBox="0 0 1024 1024" version="1.1" xmlns="http://www.w3.org/2000/svg" p-id="26760" width="128" height="128"><path d="M880.64 464.9984H432.896a116.9408 116.9408 0 0 0-214.528 0H142.0288c-25.6 0-46.5408 0-46.5408 46.4896s20.8896 46.592 46.5408 46.592h76.3392a116.9408 116.9408 0 0 0 214.528 0H880.64c25.6 0 46.4896 0 46.4896-46.5408S906.24 464.9984 880.64 464.9984zM142.0288 285.3376h472.7296a116.992 116.992 0 0 0 215.4496 0H880.64c25.6 0 46.4896 0 46.4896-46.5408S906.24 192.3072 880.64 192.3072h-51.2a116.8384 116.8384 0 0 0-213.6064 0H142.0288c-25.6 0-46.5408 0-46.5408 46.4896s20.8896 46.5408 46.5408 46.5408zM880.64 739.84h-139.2128a116.9408 116.9408 0 0 0-214.528 0H142.0288c-25.6 0-46.5408 0-46.5408 46.4896s20.8896 46.5408 46.5408 46.5408h384.8704a116.9408 116.9408 0 0 0 214.528 0H880.64c25.6 0 46.4896 0 46.4896-46.5408S906.24 739.84 880.64 739.84z" p-id="26761"></path></svg>
