<svg t="1650771838962" class="icon" viewBox="0 0 1024 1024" version="1.1" xmlns="http://www.w3.org/2000/svg" p-id="4185" width="48" height="48"><path d="M512 64C213.3 64 64 213.4 64 512c0 298.7 149.3 448 448 448s448-149.3 448-448c0-298.6-149.3-448-448-448z m0 803.8c-237.2 0-355.8-118.6-355.8-355.9S274.7 156.2 512 156.2c237.2 0 355.8 118.6 355.8 355.8S749.2 867.8 512 867.8z" p-id="4186"></path><path d="M569.1 405c26.1 9.5 42.3 4.4 47.3 2.5 15.9-10.4 21.5-73.2 1.9-83.3-6.3-7.6-53.7-8.8-58.7-2.5 4.4-2.5 3-35.1 0-37.9-14.3-13.3-46.7-14.5-61.9 0-4.4 2.6-6.9 34.8 0 39.1-46.7 17.1-77 53.1-80.7 64.4-7.6 7-27.1 54.3 0 96 27.1 41.6 121.8 74.5 140.2 87.1 18.3 12.7 14.5 69.5 0 73.3-3.2 8.8-77 11.3-112.4 5.1 0.6-21.5 0-13.9-4.4-22.7-4.4-8.8-47.4-6.9-53.7 0-6.3 6.9-10.7 68.2 0.6 75.7 17 10.7 102.9-2.5 108 3.8 5.1 6.3-8.8 41.7 0 51.8 8.8 10.1 56.2 8.8 63.1 0 6.9-8.8-4.4-44.2 0-50.5 4.4-6.3 18.9-2.5 35.4-5.1 16.4-2.5 32.8-20.2 41.7-36.6 8.8-16.4 8.2-82.1 0-99.8-8.2-17.7-38.5-42.3-56.8-56.8-18.3-14.5-58.7-37.3-90.9-46.7-11.4-15.8-7-51 0-61.8 21-33.3 50.8-10.9 81.3 4.9z" p-id="4187"></path></svg>
