<svg t="1628737273297" class="icon" viewBox="0 0 1024 1024" version="1.1" xmlns="http://www.w3.org/2000/svg" p-id="25099" width="128" height="128"><path d="M499.72 872.52c-179.31 0-325.19-143.88-325.19-320.75 0-176.84 145.88-320.72 325.19-320.72 54.31 0 108.12 13.5 155.62 39.03 23.31 12.56 32.06 41.69 19.5 65.03-12.44 23.38-41.56 32.12-65 19.53-33.56-18.06-71.62-27.59-110.12-27.59-126.38 0-229.19 100.81-229.19 224.72 0 123.94 102.81 224.75 229.19 224.75 104.5 0 195.75-69.22 221.87-168.31 6.81-25.62 33.12-40.88 58.69-34.16 25.62 6.78 40.94 33.03 34.19 58.66-37.32 141.18-166.75 239.81-314.75 239.81z" fill="#3273a9" p-id="25100"></path><path d="M799.24 407.04l-89.26-228.19c-6.2-15.85-27.38-18.78-37.64-5.2l-154.62 204.6c-10.26 13.58-1.67 33.16 15.27 34.8l243.89 23.59c16.15 1.57 28.27-14.48 22.36-29.6z" fill="#3273a9" p-id="25101"></path></svg>
