<?xml version="1.0" standalone="no"?><!DOCTYPE svg PUBLIC "-//W3C//DTD SVG 1.1//EN" "http://www.w3.org/Graphics/SVG/1.1/DTD/svg11.dtd"><svg t="1602668034753" class="icon" viewBox="0 0 1024 1024" version="1.1" xmlns="http://www.w3.org/2000/svg" p-id="4135" xmlns:xlink="http://www.w3.org/1999/xlink" width="200" height="200"><defs><style type="text/css"></style></defs><path d="M777.062847 982.699122 243.477019 982.699122c-62.648924 0-88.733239-44.949324-93.801802-68.715211-2.771121-15.587632-64.594005-362.087705-77.397524-457.166041-4.667236-34.740846 1.841152-62.475042 19.284125-82.438107 16.586354-18.933963 42.753413-29.375883 73.688239-29.375883 7.150352 0 12.830301 0.558821 15.924803 0.956751l658.191746 0c3.093303-0.401328 8.773252-0.956751 15.920006-0.956751 30.939423 0 57.101885 10.44192 73.664855 29.388674 17.471954 19.950274 23.95256 47.68447 19.285325 82.425316-12.776737 95.064346-74.599422 441.577411-77.210851 456.286238C865.796086 937.749798 839.712971 982.699122 777.062847 982.699122L777.062847 982.699122zM165.249857 399.621449c-8.664725 0-24.402855 1.403648-32.562523 10.720731-8.268194 9.444197-7.976392 26.526415-6.266951 39.206218 12.616846 93.906931 76.221322 450.365852 76.864286 453.95282 1.276535 4.721998 8.774451 24.576737 40.19235 24.576737l533.585829 0c34.566964 0 40.142184-24.416845 40.351042-25.455341 0.483072-2.706965 64.088748-359.166085 76.677613-453.072817 1.709441-12.679803 2.001043-29.762021-6.23897-39.206218-8.164265-9.320481-23.897597-10.720731-32.567119-10.720731-5.200474 0-8.878181 0.492466-9.598292 0.601992-1.413042 0.222849-2.986975 0.360556-4.403614 0.360556L179.251763 400.585395c-1.517971 0-3.040738-0.137707-4.558709-0.387337C174.159616 400.118512 170.450331 399.621449 165.249857 399.621449L165.249857 399.621449zM242.035996 544.959509c0 14.94107 6.153828 29.790202 16.718265 40.355639 10.565636 10.565437 25.415768 16.713468 40.355639 16.713468 14.94107 0 29.791202-6.149231 40.355639-16.713468 10.565636-10.565636 16.713468-25.414569 16.713468-40.355639 0-14.94107-6.148032-29.790202-16.713468-40.355639-10.564437-10.565636-25.414569-16.713468-40.355639-16.713468-14.939871 0-29.790202 6.148032-40.355639 16.713468C248.189823 515.169307 242.035996 530.01824 242.035996 544.959509L242.035996 544.959509zM664.360859 544.959509c0 14.94107 6.148032 29.790202 16.713468 40.355639 10.564437 10.565437 25.414569 16.713468 40.355639 16.713468 14.939871 0 29.790202-6.149231 40.355639-16.713468 10.564437-10.565636 16.713468-25.414569 16.713468-40.355639 0-14.94107-6.15023-29.790202-16.713468-40.355639-10.565636-10.565636-25.415768-16.713468-40.355639-16.713468-14.94127 0-29.791202 6.148032-40.355639 16.713468C670.508891 515.169307 664.360859 530.01824 664.360859 544.959509L664.360859 544.959509zM753.781232 307.839277c-15.095165 0-27.309484-12.228309-27.309484-27.310683 0-109.762781-97.002432-199.066633-216.213008-199.066633-119.216371 0-216.189623 89.303852-216.189623 199.066633 0 15.082374-12.215518 27.310683-27.310683 27.310683-15.096365 0-27.311683-12.228309-27.311683-27.310683 0-139.886557 121.482435-253.6878 270.811989-253.6878 149.326157 0 270.832975 113.801243 270.832975 253.6878C781.091916 295.611168 768.878796 307.839277 753.781232 307.839277L753.781232 307.839277z" p-id="4136"></path></svg>