<svg t="1649840130646" class="icon" viewBox="0 0 1024 1024" version="1.1" xmlns="http://www.w3.org/2000/svg" p-id="2894" width="128" height="128"><path d="M512 0a512 512 0 0 1 512 512 512 512 0 0 1-512 512 512 512 0 0 1-512-512 512 512 0 0 1 512-512z m179.346286 87.405714A457.069714 457.069714 0 0 0 512 51.2c-62.317714 0-122.514286 12.141714-179.346286 36.205714a460.214857 460.214857 0 0 0-146.432 98.742857 462.482286 462.482286 0 0 0-95.232 138.093715H512c88.941714 0 163.108571 61.659429 182.784 144.384l155.648-269.458286a462.921143 462.921143 0 0 0-159.085714-111.762286zM397.458286 586.093714a18.285714 18.285714 0 0 1 2.56 3.730286l0.512 0.877714A136.411429 136.411429 0 0 0 648.484571 512 136.777143 136.777143 0 0 0 512 375.442286 136.777143 136.777143 0 0 0 375.442286 512c0 27.282286 8.045714 52.736 22.016 74.093714z m440.32 251.684572a460.068571 460.068571 0 0 0 98.816-146.432c24.137143-56.832 36.205714-117.028571 36.205714-179.346286a457.069714 457.069714 0 0 0-87.771429-270.482286L677.961143 600.210286h-0.146286a187.538286 187.538286 0 0 1-218.697143 92.013714l155.501715 269.165714a457.581714 457.581714 0 0 0 223.232-123.611428zM87.332571 691.346286a460.214857 460.214857 0 0 0 98.889143 146.432 460.141714 460.141714 0 0 0 146.432 98.816 457.069714 457.069714 0 0 0 227.986286 33.645714L358.034286 619.52A186.660571 186.660571 0 0 1 324.242286 512c0-53.76 22.528-102.4 58.88-136.557714H71.68A458.605714 458.605714 0 0 0 51.2 512c0 62.317714 12.141714 122.514286 36.205714 179.346286z" p-id="2895"></path></svg>
