<svg t="1649829555873" class="icon" viewBox="0 0 1024 1024" version="1.1" xmlns="http://www.w3.org/2000/svg" p-id="2026" width="128" height="128"><path d="M857.6 337.056C806.4 187.744 669.856 85.344 512 85.344c-157.856 0-298.656 102.4-345.6 251.712-64 17.088-115.2 76.8-115.2 153.6V537.6c0 85.344 68.256 157.856 149.344 157.856h128V332.8H260.256C307.2 234.656 405.344 170.656 512 170.656s204.8 64 251.744 162.144h-68.288v362.656h68.288C721.056 789.344 622.944 857.6 512 857.6c-25.6 0-51.2-4.256-76.8-12.8l-25.6 81.056c34.144 8.544 64 12.8 98.144 12.8 157.856 0 298.656-102.4 345.6-251.712 64-17.088 115.2-76.8 115.2-153.6V486.4c4.256-72.544-46.944-132.256-110.944-149.344zM243.2 610.144H200.544c-34.144 0-64-34.144-64-72.544v-46.944c0-38.4 29.856-72.512 64-72.512H243.2v192zM887.456 537.6c0 38.4-29.856 72.544-64 72.544H780.8v-192h42.656c34.144 0 64 34.112 64 72.512V537.6z" p-id="2027"></path></svg>
