<svg t="1648174400953" class="icon" viewBox="0 0 1024 1024" version="1.1" xmlns="http://www.w3.org/2000/svg" p-id="1124" width="128" height="128"><path d="M725.333333 85.333333a170.666667 170.666667 0 0 1 170.666667 170.666667v512a170.666667 170.666667 0 0 1-170.666667 170.666667H298.666667a170.666667 170.666667 0 0 1-170.666667-170.666667V256a170.666667 170.666667 0 0 1 170.666667-170.666667h426.666666z m0 85.333334H298.666667a85.333333 85.333333 0 0 0-85.12 78.933333L213.333333 256v512a85.333333 85.333333 0 0 0 78.933334 85.12L298.666667 853.333333h426.666666a85.333333 85.333333 0 0 0 85.12-78.933333L810.666667 768V256a85.333333 85.333333 0 0 0-78.933334-85.12L725.333333 170.666667z m-42.666666 469.333333a42.666667 42.666667 0 0 1 4.992 85.034667L682.666667 725.333333H341.333333a42.666667 42.666667 0 0 1-4.992-85.034666L341.333333 640h341.333334z m0-170.666667a42.666667 42.666667 0 0 1 0 85.333334H341.333333a42.666667 42.666667 0 0 1 0-85.333334h341.333334z m-170.666667-170.666666a42.666667 42.666667 0 0 1 4.992 85.034666L512 384H341.333333a42.666667 42.666667 0 0 1-4.992-85.034667L341.333333 298.666667h170.666667z" p-id="1125"></path></svg>
