<svg t="1652325808407" class="icon" viewBox="0 0 1024 1024" version="1.1" xmlns="http://www.w3.org/2000/svg" p-id="3284" width="32" height="32"><path d="M884.6592 743.1936H626.2528c-21.76 0-40.8064-19.0208-40.8064-40.7808s19.0464-40.8064 40.8064-40.8064h258.4064c21.76 0 40.7808 19.0208 40.7808 40.7808s-19.0208 40.8064-40.7808 40.8064z" p-id="3285" ></path><path d="M624.7168 743.1936c-10.88 0-21.76-2.7136-27.2128-10.88-16.3072-16.3072-16.3072-40.7808 0-57.088l122.4192-122.4192c16.3072-16.3328 40.7808-16.3328 57.088 0 16.3328 16.3072 16.3328 40.8064 0 57.1136l-122.368 122.4448c-10.88 8.1664-21.76 10.88-29.952 10.88v-0.0512z" p-id="3286" ></path><path d="M747.5712 865.5872c-10.88 0-21.76-2.7136-27.1872-10.88l-122.4448-122.368c-16.3072-16.3072-16.3072-40.7808 0-57.088 16.3072-16.3328 40.8064-16.3328 57.1136 0l122.4448 122.368c16.3328 16.3072 16.3328 40.7808 0 57.088-8.1664 5.4528-19.0464 10.88-29.9264 10.88z" p-id="3287" ></path><path d="M832.9728 909.1328a119.3472 119.3472 0 0 1-84.3264 35.328c-32.64 0-59.8528-10.8544-84.3264-35.328l-119.68-122.4192c-16.3072-16.3072-27.2128-38.0672-32.64-59.8272-2.7136-8.1664-2.7136-16.3328-2.7136-24.448 0-8.1152 0-16.3072 2.7136-24.4224 5.4272-21.76 16.3072-43.5712 32.64-59.8528l122.368-122.4704a118.2208 118.2208 0 0 1 168.6272 0c16.64 16.64 49.152 58.7008 63.5648 77.568a3.968 3.968 0 0 0 7.168-2.432V292.9408a113.1264 113.1264 0 0 0-112.8192-112.768h-467.968a113.1264 113.1264 0 0 0-112.768 112.768v541.4656A113.1264 113.1264 0 0 0 325.5808 947.2h465.3056a113.1264 113.1264 0 0 0 112.7936-112.7936 3.968 3.968 0 0 0-5.1968-3.7888 3.9936 3.9936 0 0 0-1.9968 1.4336c-13.9776 19.1488-44.9792 60.5952-63.5136 77.056z" p-id="3288" ></path><path d="M152.96 805.76V229.12c0-62.5664 51.6608-114.2272 114.2272-114.2272h495.0528C743.168 93.1072 713.2672 76.8 680.6272 76.8H207.36a109.1072 109.1072 0 0 0-108.8 108.8v552.1664c0 40.8064 21.76 76.16 57.088 95.2064-2.688-10.88-2.688-19.0464-2.688-27.2128z" p-id="3289" ></path></svg>
