<svg t="1649215296542" class="icon" viewBox="0 0 1024 1024" version="1.1" xmlns="http://www.w3.org/2000/svg" p-id="1935" width="200" height="200"><path d="M841.6 512l4.778667 6.4c55.466667 78.421333 68.821333 152.021333 37.333333 206.933333-31.445333 54.954667-101.845333 80-197.845333 70.954667-2.688 0-5.333333-0.554667-8.021334-1.109333-1.066667 2.688-2.133333 4.821333-3.2 7.466666C634.666667 890.666667 577.578667 938.666667 514.133333 938.666667c-62.933333 0-120.021333-48-160-136.021334-1.066667-2.645333-2.133333-4.778667-3.2-7.466666-2.688 0.554667-5.333333 0.554667-8.021333 1.109333-96 9.045333-166.4-16-197.845333-70.954667-32-54.912-18.688-128 37.333333-206.933333l4.778667-6.4-4.778667-6.4C126.378667 426.666667 113.066667 353.578667 145.066667 298.666667c27.178667-47.445333 83.712-72.533333 161.066666-72.533334 11.733333 0 23.978667 0.554667 36.778667 1.621334 2.688 0 5.333333 0.512 8.021333 1.024 1.066667-2.645333 2.133333-4.778667 3.2-7.466667C394.112 133.376 451.2 85.333333 514.133333 85.333333s119.978667 48 160.512 136.021334c1.066667 2.645333 2.133333 4.778667 3.2 7.466666 2.688-0.554667 5.333333-0.554667 8.021334-1.109333 12.8-1.024 25.045333-1.578667 36.778666-1.578667 77.354667 0 133.888 25.088 161.066667 72.533334 31.488 54.912 18.133333 128-37.333333 206.933333l-4.778667 6.4z m-119.466667 211.2c48.512 0 83.712-12.8 97.066667-35.2 14.933333-25.6 4.266667-69.333333-27.733333-117.333333-20.821333 21.333333-44.288 41.6-69.333334 61.354666-4.266667 31.445333-10.666667 61.866667-18.688 90.624 6.4 0.554667 12.8 0.554667 18.688 0.554667zM629.333333 313.088l-19.2 4.778667c4.266667 2.133333 7.978667 4.778667 12.245334 6.912 4.266667 2.133333 8.021333 4.821333 12.288 6.954666-1.621333-6.4-3.754667-12.8-5.333334-18.688z m-44.288 76.245333c-23.466667-13.354667-46.933333-25.6-70.912-36.266666-23.466667 10.666667-47.488 22.912-70.954666 36.266666-23.466667 13.354667-45.866667 28.245333-66.645334 43.178667-2.688 25.6-3.754667 52.309333-3.754666 79.488s1.621333 53.845333 3.754666 79.488c20.778667 14.933333 43.178667 29.312 66.645334 43.178667 23.466667 13.354667 46.933333 25.6 70.954666 36.266666 23.466667-10.666667 47.445333-22.912 70.912-36.266666 23.466667-13.354667 45.866667-28.245333 66.688-43.178667 2.645333-25.6 3.712-52.309333 3.712-79.488s-1.578667-53.845333-3.712-79.488a897.152 897.152 0 0 0-66.688-43.178667z m-185.6-76.245333c-1.578667 6.4-3.712 12.8-5.333333 19.2 4.266667-2.688 8.021333-4.821333 12.288-6.954667 4.266667-2.133333 7.978667-4.778667 12.245333-6.912-6.4-2.133333-12.8-3.754667-19.2-5.333333z m-101.333333 185.045333L284.245333 512c4.266667 4.821333 9.088 9.6 13.866667 13.866667v-27.733334z m101.333333 212.821334l19.2-4.821334c-4.266667-2.133333-7.978667-4.821333-12.245333-6.954666-4.266667-2.133333-8.021333-4.778667-12.288-6.912 1.621333 6.4 3.2 12.8 5.333333 18.688z m229.888 0c1.578667-6.4 3.712-12.8 5.333334-19.2-4.266667 2.645333-8.021333 4.778667-12.288 6.912-4.266667 2.133333-7.978667 4.821333-12.245334 6.954666 6.4 2.133333 12.8 3.712 19.2 5.333334z m100.778667-185.088l13.866667-13.866667a170.112 170.112 0 0 0-13.866667-13.866667V512c0 4.266667 0.554667 9.6 0 13.866667zM514.133333 864c29.866667 0 61.866667-30.933333 87.978667-82.688-28.8-7.466667-58.112-17.066667-87.978667-29.312-29.866667 11.733333-59.221333 21.845333-88.021333 29.354667 26.154667 51.712 58.666667 82.645333 88.021333 82.645333z m-304.554666-176c13.354667 22.954667 48.554667 35.2 97.066666 35.2 5.888 0 12.288-0.512 18.688-0.512a681.6 681.6 0 0 1-18.688-90.666667 788.096 788.096 0 0 1-69.333333-61.354666c-32 48-42.666667 91.733333-27.733333 117.333333z m0-352c-14.933333 25.6-4.266667 69.333333 27.733333 117.333333 20.821333-21.333333 44.288-41.6 69.333333-61.354666 4.266667-31.445333 10.666667-62.378667 18.688-90.624-58.154667-3.754667-100.821333 9.045333-115.754666 34.645333zM514.133333 160c-29.866667 0-61.866667 30.933333-88.021333 82.688 28.8 7.466667 58.154667 17.066667 88.021333 29.312 29.866667-11.733333 59.178667-21.888 87.978667-29.354667-25.6-51.712-58.112-82.645333-87.978667-82.645333z m305.066667 176c-14.933333-25.6-57.6-38.4-115.754667-34.688 8.021333 28.8 14.421333 59.221333 18.688 90.666667 25.045333 19.754667 48.512 40.533333 69.333334 61.354666 32-48 42.666667-91.733333 27.733333-117.333333z" p-id="1936"></path></svg>
