<svg t="1649817087222" class="icon" viewBox="0 0 1024 1024" version="1.1" xmlns="http://www.w3.org/2000/svg" p-id="2281" width="128" height="128"><path d="M577.1264 327.748267c0 79.633067-67.362133 144.213333-150.459733 144.213333-83.114667 0-150.459733-64.580267-150.459734-144.213333 0-79.633067 67.362133-144.196267 150.459734-144.196267 83.114667 0 150.459733 64.5632 150.459733 144.213333zM551.253333 498.449067c56.098133-37.666133 92.7744-100.078933 92.7744-170.7008C644.010667 212.718933 546.696533 119.466667 426.666667 119.466667c-120.029867 0-217.344 93.252267-217.344 208.2816 0 70.621867 36.676267 133.034667 92.7744 170.7008C136.789333 548.9664 17.066667 697.326933 17.066667 872.482133 17.066667 890.197333 32.034133 904.533333 50.517333 904.533333c18.449067 0 33.416533-14.336 33.416534-32.034133 0-181.418667 153.4464-328.448 342.7328-328.448 189.269333 0 342.7328 147.0464 342.7328 328.448 0 17.681067 14.967467 32.034133 33.4336 32.034133S836.266667 890.197333 836.266667 872.4992c0-175.172267-119.722667-323.5328-285.013334-374.050133z" p-id="2282" ></path><path d="M683.042133 513.501867c-2.730667-0.0512-5.461333-0.085333-8.2432-0.085334-17.885867 0-32.392533-14.216533-32.392533-31.744 0-17.544533 14.506667-31.761067 32.392533-31.761066 4.608 0 9.147733 0.068267 13.653334 0.2048 73.0112-10.973867 124.3136-76.9536 115.2-149.248-9.301333-73.642667-77.738667-125.952-152.866134-116.855467-17.749333 2.1504-33.9456-10.205867-36.130133-27.613867-2.218667-17.408 10.410667-33.28 28.16-35.413333 110.677333-13.4144 211.456 63.6416 225.143467 172.0832 8.721067 69.188267-20.104533 134.434133-70.8608 176.093867 51.968 17.988267 94.958933 48.128 128.256 88.507733C981.213867 625.3568 1006.933333 718.2336 1006.933333 821.572267 1006.933333 839.1168 992.426667 853.333333 974.523733 853.333333c-17.885867 0-32.392533-14.216533-32.392533-31.744 0-93.969067-23.483733-171.042133-67.157333-223.982933-40.2432-48.776533-100.113067-80.128-183.432534-83.8144-2.901333 0.273067-5.751467 0.170667-8.4992-0.290133z" p-id="2283" ></path></svg>
