<svg t="1650874313906" class="icon" viewBox="0 0 1024 1024" version="1.1" xmlns="http://www.w3.org/2000/svg" p-id="12537" width="32" height="32"><path d="M512 128c211.2 0 384 172.8 384 384s-172.8 384-384 384-384-172.8-384-384 172.8-384 384-384m0-64C262.4 64 64 262.4 64 512s198.4 448 448 448 448-198.4 448-448-198.4-448-448-448z" p-id="12538"></path><path d="M544 512m-32 0a32 32 0 1 0 64 0 32 32 0 1 0-64 0Z" p-id="12539"></path><path d="M800 512m-32 0a32 32 0 1 0 64 0 32 32 0 1 0-64 0Z" p-id="12540"></path><path d="M544 480h256v64h-256z" p-id="12541"></path></svg>
