<svg t="1649816969763" class="icon" viewBox="0 0 1024 1024" version="1.1" xmlns="http://www.w3.org/2000/svg" p-id="1996" width="128" height="128"><path d="M493.397333 554.4448c-132.7104 0-240.708267-107.963733-240.708266-240.6912 0-132.693333 107.997867-240.674133 240.725333-240.674133s240.674133 107.9808 240.674133 240.674133c0 132.727467-107.946667 240.6912-240.674133 240.6912z m0-415.197867c-96.221867 0-174.5408 78.301867-174.5408 174.506667 0 96.238933 78.336 174.523733 174.557867 174.523733 96.238933 0 174.506667-78.2848 174.506667-174.523733 0-96.2048-78.267733-174.506667-174.506667-174.506667z" p-id="1997" ></path><path d="M96.938667 950.920533a33.092267 33.092267 0 0 1-33.109334-33.092266c0-236.8512 192.682667-429.550933 429.568-429.550934a428.970667 428.970667 0 0 1 284.245334 107.52 33.109333 33.109333 0 0 1 2.9184 46.711467 33.109333 33.109333 0 0 1-46.6944 2.884267 363.008 363.008 0 0 0-240.469334-90.948267c-200.379733 0-363.383467 163.0208-363.383466 363.383467 0 18.261333-14.830933 33.092267-33.092267 33.092266zM927.061333 837.853867H701.0304a33.092267 33.092267 0 0 1 0-66.167467H927.061333a33.092267 33.092267 0 0 1 0 66.167467z" p-id="1998" ></path><path d="M814.045867 950.903467a33.092267 33.092267 0 0 1-33.092267-33.092267V691.746133a33.092267 33.092267 0 0 1 66.167467 0v226.065067c0 18.261333-14.813867 33.092267-33.0752 33.092267z" p-id="1999" ></path></svg>
