<svg t="1649817365247" class="icon" viewBox="0 0 1024 1024" version="1.1" xmlns="http://www.w3.org/2000/svg" p-id="2565" width="128" height="128"><path d="M636.245333 613.461333a129.28 129.28 0 0 1 118.101334 100.394667 25.045333 25.045333 0 1 1-48.810667 11.093333 79.274667 79.274667 0 0 0-105.685333-56.405333l-82.346667 31.573333a79.232 79.232 0 0 0 56.746667 147.968l46.848-17.962666a25.031111 25.031111 0 0 1 17.92 46.72l-47.061334 18.048-0.128 0.042666a129.28 129.28 0 0 1-92.501333-241.408l82.56-31.701333a129.123556 129.123556 0 0 1 54.357333-8.362667z" p-id="2566" ></path><path d="M626.133333 561.066667c2.944 0 4.266667-3.413333 2.176-5.333334a354.574222 354.574222 0 0 0-98.944-62.762666c-0.384-0.213333-0.768-0.298667-1.152-0.469334a236.672 236.672 0 0 0 97.792-191.872A236.373333 236.373333 0 0 0 389.888 64a236.288 236.288 0 0 0-236.032 236.629333A236.544 236.544 0 0 0 251.733333 492.501333l-1.152 0.426667a355.512889 355.512889 0 0 0-113.834666 76.928 356.266667 356.266667 0 0 0-76.672 114.005333 356.551111 356.551111 0 0 0-28.074667 131.754667 7.68 7.68 0 0 0 7.68 7.850667h57.130667a7.68 7.68 0 0 0 7.594666-7.466667 284.672 284.672 0 0 1 83.626667-194.901333A283.207111 283.207111 0 0 1 389.973333 537.173333a282.88 282.88 0 0 1 150.741334 43.050667 7.68 7.68 0 0 0 7.722666 0.256 163.584 163.584 0 0 1 77.653334-19.456l0.042666 0.042667zM389.973333 464.725333c-43.690667 0-84.821333-17.066667-115.797333-48.085333a163.342222 163.342222 0 0 1-48.042667-116.053333c0-43.776 17.066667-84.992 48-116.010667A162.432 162.432 0 0 1 389.973333 136.533333c43.818667 0 84.821333 17.066667 115.84 48.085334a163.342222 163.342222 0 0 1 48 116.053333c0 43.776-17.066667 84.992-48 116.010667a162.787556 162.787556 0 0 1-115.84 48.085333v-0.042667z m385.194667 83.2A129.28 129.28 0 1 1 867.797333 789.333333l-0.256 0.085334-0.128 0.085333-82.602666 31.701333a129.265778 129.265778 0 0 1-172.458667-92.074666 25.059556 25.059556 0 0 1 48.810667-11.093334 79.232 79.232 0 0 0 105.685333 56.405334l82.389333-31.573334a79.217778 79.217778 0 0 0-56.789333-147.925333l-47.104 17.92a25.045333 25.045333 0 1 1-17.792-46.805333l47.274667-17.962667 0.341333-0.128v-0.042667z" p-id="2567" ></path></svg>
