<svg t="1649840182687" class="icon" viewBox="0 0 1024 1024" version="1.1" xmlns="http://www.w3.org/2000/svg" p-id="3177" width="128" height="128"><path d="M736.09978 456.67002a64.341862 64.341862 0 0 0-96.512793 55.860435 64.488093 64.488093 0 0 0 96.512793 55.860434 64.488093 64.488093 0 0 0 0-111.720869z m261.46193-98.925612a502.305217 502.305217 0 0 0-43.138294-98.706266c-12.210331-21.130452-40.359895-22.88523-54.105657-3.363324-8.554543 12.210331-7.165344 24.640008-0.146231 37.362149 59.589338 108.503776 74.066257 223.003044 40.067432 341.962373a446.152319 446.152319 0 0 1-558.165651 305.696959C206.376156 888.491652 78.862285 729.757354 65.262755 546.456164a450.61238 450.61238 0 0 1 36.923455-215.8377C184.660778 140.736855 395.30726 31.136343 597.764777 72.885437a449.881223 449.881223 0 0 1 131.973933 49.280017 34.437519 34.437519 0 0 0 22.665883 5.410566 32.170931 32.170931 0 0 0 27.19906-25.444282c2.705283-14.403803-3.655788-27.418407-17.694012-35.241792C647.11791 3.13301 525.453298-15.438391 397.573848 13.2961 165.431335 65.135168 0.189735 273.222598 0.189735 511.57995c0 38.166423 4.021366 75.894151 12.429678 113.036953 64.999904 287.710484 359.363922 461.28728 641.810072 378.374017a511.664033 511.664033 0 0 0 343.132225-645.246512zM478.659217 456.67002a64.488093 64.488093 0 0 0 32.170931 120.348528 64.414978 64.414978 0 1 0-32.170931-120.348528z m-193.025585 0a64.488093 64.488093 0 0 0 64.414977 111.720869 64.488093 64.488093 0 0 0-64.341862-111.720869z" p-id="3178"></path></svg>
