<svg t="1650851008117" class="icon" viewBox="0 0 1024 1024" version="1.1" xmlns="http://www.w3.org/2000/svg" p-id="8397" width="48" height="48"><path d="M768 896H256c-70.6 0-128-57.4-128-128V256c0-70.6 57.4-128 128-128h512c70.6 0 128 57.4 128 128v512c0 70.6-57.4 128-128 128zM256 213.3c-23.5 0-42.7 19.1-42.7 42.7v512c0 23.5 19.1 42.7 42.7 42.7h512c23.5 0 42.7-19.1 42.7-42.7V256c0-23.5-19.1-42.7-42.7-42.7H256z" p-id="8398" ></path><path d="M355.6 469.3c-10.9 0-21.8-4.2-30.2-12.5l-56.9-56.9c-16.7-16.7-16.7-43.7 0-60.3 16.7-16.7 43.7-16.7 60.3 0l26.7 26.7 55.2-55.2c16.7-16.7 43.7-16.7 60.3 0 16.7 16.7 16.7 43.7 0 60.3l-85.3 85.3c-8.3 8.5-19.2 12.6-30.1 12.6zM725.3 426.7h-128c-23.6 0-42.7-19.1-42.7-42.7s19.1-42.7 42.7-42.7h128c23.6 0 42.7 19.1 42.7 42.7s-19.1 42.7-42.7 42.7zM725.3 672h-128c-23.6 0-42.7-19.1-42.7-42.7s19.1-42.7 42.7-42.7h128c23.6 0 42.7 19.1 42.7 42.7S748.9 672 725.3 672zM362.7 736C303.9 736 256 688.2 256 629.3c0-58.8 47.9-106.7 106.7-106.7s106.7 47.8 106.7 106.7c-0.1 58.9-47.9 106.7-106.7 106.7z m0-128c-11.8 0-21.3 9.6-21.3 21.3s9.6 21.3 21.3 21.3S384 641 384 629.3s-9.6-21.3-21.3-21.3z" p-id="8399" ></path></svg>
