<svg t="1649839994205" class="icon" viewBox="0 0 1092 1024" version="1.1" xmlns="http://www.w3.org/2000/svg" p-id="2236" width="128" height="128"><path d="M829.166933 642.525867c-51.063467 0-87.6544 43.8272-87.6544 43.8272-160.631467 146.0224-394.308267 167.936-576.853333 51.063466 87.586133 131.413333 233.6768 219.136 401.6128 219.136 138.786133 0 270.1312-58.504533 357.7856-160.699733 0 0 7.304533-36.4544 7.304533-58.436267-14.5408-58.436267-51.063467-94.890667-102.1952-94.890666zM653.994667 7.236267s-36.522667 7.3728-58.504534 21.845333c-36.4544 29.2864-51.063467 80.349867-21.845333 124.177067 29.218133 43.8272 80.2816 51.063467 80.2816 51.063466 109.568 36.522667 204.458667 109.568 270.1312 211.694934 43.8272 80.349867 65.7408 167.936 58.436267 262.894933 73.045333-138.717867 73.045333-306.722133-7.236267-452.676267C902.212267 116.872533 785.476267 29.218133 653.994667 7.236267zM281.668267 613.307733c29.218133-43.8272 7.3728-94.890667 7.3728-94.890666-29.218133-116.804267-7.3728-233.6768 51.063466-335.872C383.7952 102.263467 456.840533 43.8272 537.258667 0 383.863467 7.236267 237.841067 87.586133 150.186667 233.6768a476.842667 476.842667 0 0 0-36.4544 387.003733s21.845333 21.845333 51.063466 36.4544c36.522667 21.845333 87.6544 7.236267 116.872534-43.8272zM727.04 533.026133c-7.304533-36.522667-36.522667-65.7408-36.522667-65.7408 7.304533-36.4544-7.304533-36.4544-7.304533-36.4544 0-109.499733-94.890667-102.263467-94.890667-102.263466s-94.890667 0-94.890666 102.263466c0 0-14.609067 7.236267-7.3728 36.4544 0 0-29.218133 21.845333-36.4544 65.7408 0 0-7.304533 65.672533 29.218133 7.236267 0 0 7.236267 21.845333 21.845333 36.4544 0 0-21.845333 7.304533-21.845333 29.218133 0 0 0 21.845333 51.063467 21.845334 0 0 36.4544 0 51.063466-21.845334h14.609067c14.609067 14.609067 51.131733 21.845333 51.131733 21.845334 58.436267 0 51.063467-21.845333 51.063467-21.845334 0-21.845333-21.845333-29.218133-21.845333-29.218133 14.609067-21.845333 21.845333-36.4544 21.845333-36.4544 36.4544 58.436267 29.218133-7.236267 29.218133-7.236267z" p-id="2237"></path></svg>
