<svg t="1648534705617" class="icon" viewBox="0 0 1024 1024" version="1.1" xmlns="http://www.w3.org/2000/svg" p-id="1753" width="128" height="128"><path d="M512 0a512 512 0 1 1 0 1024A512 512 0 0 1 512 0z m0 96a416 416 0 1 0 0 832 416 416 0 0 0 0-832zM512 704a64 64 0 1 1 0 128 64 64 0 0 1 0-128zM383.36 245.248c70.848-70.976 194.688-70.976 265.6 0 35.456 35.456 55.04 82.624 55.04 132.8 0 50.176-19.584 97.408-55.04 132.8L560 599.872V640h-96V576h1.792a50.624 50.624 0 0 1 14.08-40.96l96.64-96.576c16.128-16.192 25.024-37.568 25.024-60.416 0-22.784-8.896-44.224-24.96-60.352-32.384-32.32-88.512-32.32-120.832 0l-48.32 48.32a51.328 51.328 0 0 1-72.448-72.512l48.384-48.256z" p-id="1754"></path></svg>
