<svg t="1648129593109" class="icon" viewBox="0 0 1024 1024" version="1.1" xmlns="http://www.w3.org/2000/svg" p-id="1293" width="128" height="128"><path d="M845.994667 135.338667A170.666667 170.666667 0 0 0 725.333333 85.333333H298.666667a170.666667 170.666667 0 0 0-170.666667 170.666667v512a170.666667 170.666667 0 0 0 170.666667 170.666667h426.666666a170.666667 170.666667 0 0 0 170.666667-170.666667V256a170.666667 170.666667 0 0 0-50.005333-120.661333zM298.666667 170.666667h426.666666l6.4 0.213333A85.333333 85.333333 0 0 1 810.666667 256v512l-0.213334 6.4A85.333333 85.333333 0 0 1 725.333333 853.333333H298.666667l-6.4-0.213333A85.333333 85.333333 0 0 1 213.333333 768V256l0.213334-6.4A85.333333 85.333333 0 0 1 298.666667 170.666667z m285.226666 523.648A42.666667 42.666667 0 0 0 554.666667 682.666667H341.333333l-4.992 0.298666A42.666667 42.666667 0 0 0 341.333333 768h213.333334l4.992-0.298667a42.666667 42.666667 0 0 0 24.234666-73.386666z m128.938667-148.48A42.666667 42.666667 0 0 0 682.666667 533.333333H341.333333a42.666667 42.666667 0 0 0 0 85.333334h341.333334a42.666667 42.666667 0 0 0 30.165333-72.832z m2.602667-241.194667a42.666667 42.666667 0 1 0-65.536-54.613333l-82.133334 98.56-96.085333-64.085334a42.666667 42.666667 0 0 0-53.845333 5.333334l-106.666667 106.666666a42.666667 42.666667 0 0 0 60.330667 60.330667l81.92-81.92 98.901333 65.92a42.666667 42.666667 0 0 0 56.448-8.192l106.666667-128z" p-id="1294"></path></svg>
