<svg t="1652325781646" class="icon" viewBox="0 0 1024 1024" version="1.1" xmlns="http://www.w3.org/2000/svg" p-id="3088" width="32" height="32"><path d="M549.76 64h-75.52a32 32 0 0 0-31.3856 25.728l-19.5328 97.5872a32.128 32.128 0 0 1-20.608 23.8592c-8.9088 3.2256-17.6128 6.8352-26.112 10.8288a32.512 32.512 0 0 1-13.7984 3.072c-6.2976 0-12.4672-1.8688-17.7152-5.376l-82.7904-55.1936a32 32 0 0 0-40.3712 3.9936L168.4992 221.952a32 32 0 0 0-3.9936 40.3712l55.2192 82.816a32.1536 32.1536 0 0 1 2.2784 31.488c-3.9936 8.4992-7.6032 17.2032-10.8288 26.112a32.128 32.128 0 0 1-23.8592 20.6336l-97.5872 19.5072A32 32 0 0 0 64 474.24v75.52a32 32 0 0 0 25.728 31.3856l97.5872 19.5072a32.128 32.128 0 0 1 23.8592 20.6336c3.2256 8.8832 6.8352 17.6128 10.8288 26.112a32.1536 32.1536 0 0 1-2.304 31.488l-55.1936 82.816a32 32 0 0 0 3.9936 40.3712l53.4272 53.4272a32 32 0 0 0 40.3712 3.9936l82.816-55.2192c5.248-3.4816 11.4176-5.376 17.7152-5.3504 4.7616 0 9.472 1.0496 13.7472 3.072 8.5248 3.9936 17.2288 7.6032 26.1376 10.8288a32.128 32.128 0 0 1 20.6336 23.8592l19.5072 97.5872a32 32 0 0 0 31.3856 25.728h75.52a32 32 0 0 0 31.3856-25.728l19.5072-97.5872a32.1024 32.1024 0 0 1 20.6336-23.8592c8.8832-3.2256 17.6128-6.8352 26.112-10.8288a32.512 32.512 0 0 1 13.7984-3.072c6.2976 0 12.4672 1.8688 17.7152 5.376l82.7904 55.1936a32 32 0 0 0 40.3968-3.9936l53.4016-53.4272a32 32 0 0 0 3.9936-40.3712l-55.1936-82.816a32.128 32.128 0 0 1-2.304-31.488c3.9936-8.4992 7.6032-17.2032 10.8288-26.112a32.128 32.128 0 0 1 23.8592-20.608l97.5872-19.5328a32 32 0 0 0 25.728-31.3856v-75.52a32 32 0 0 0-25.728-31.3856l-97.5872-19.5328a32.1024 32.1024 0 0 1-23.8592-20.608 308.8896 308.8896 0 0 0-10.8288-26.112 32.1536 32.1536 0 0 1 2.304-31.488l55.1936-82.816a32 32 0 0 0-3.9936-40.3712L802.048 168.4992a32 32 0 0 0-40.3712-3.9936l-82.816 55.2192c-5.248 3.4816-11.392 5.376-17.7152 5.3504a32.512 32.512 0 0 1-13.7728-3.072 306.432 306.432 0 0 0-26.112-10.8288 32.128 32.128 0 0 1-20.6336-23.8592l-19.5072-97.5872A32 32 0 0 0 549.76 64zM512 704a192 192 0 1 1 135.7568-56.2432A190.72 190.72 0 0 1 512 704z" p-id="3089"></path></svg>
