<svg t="1652325699281" class="icon" viewBox="0 0 1024 1024" version="1.1" xmlns="http://www.w3.org/2000/svg" p-id="2512" width="64" height="64"><path d="M502.6816 62.3104c-124.5184 0-225.6384 98.944-225.6384 221.0816 0 122.112 101.0688 221.0816 225.6384 221.0816 124.5952 0 225.6896-98.944 225.6896-221.0816 0-122.112-100.992-221.0816-225.6896-221.0816z m0 0c-124.5184 0-225.6384 98.944-225.6384 221.0816 0 122.112 101.0688 221.0816 225.6384 221.0816 124.5952 0 225.6896-98.944 225.6896-221.0816 0-122.112-100.992-221.0816-225.6896-221.0816z m-84.5568 515.8912c-160.9984 0-291.5328 127.872-291.5328 285.5424v18.3552c0 64.512 130.56 64.5632 291.5328 64.5632h188.0576c160.9728 0 291.456-2.3808 291.456-64.5632v-18.3552c0-157.6704-130.4832-285.5424-291.456-285.5424h-188.0576z" p-id="2513"></path></svg>
