<svg t="1636103667173" class="icon" viewBox="0 0 1024 1024" version="1.1" xmlns="http://www.w3.org/2000/svg" p-id="2433" width="128" height="128"><path d="M514.7 772.59c-23.23 0-39.37-16.78-39.37-41.3 0-23.23 16.13-41.3 39.37-41.3 23.23 0 40.66 18.07 40.66 41.3 0 24.52-17.43 41.3-40.66 41.3z m-0.64-437.54c17.42 0 36.78 3.87 37.43 21.94 0 6.45-0.65 15.49-1.94 25.17-4.52 49.69-17.42 165.85-22.59 242.65H501.8c-5.81-76.8-17.42-189.73-22.59-242-0.65-8.39-1.94-20.01-1.94-26.46 0-16.78 18.72-21.3 36.79-21.3z" p-id="2434"></path><path d="M513.89 155.77l396.96 687.55H116.93l396.96-687.55m0-30c-10.72 0-20.62 5.72-25.98 15L90.95 828.32a30.002 30.002 0 0 0 25.98 45h793.92a30.002 30.002 0 0 0 25.98-45L539.87 140.77c-5.36-9.28-15.26-15-25.98-15z" p-id="2435"></path></svg>
