<?xml version="1.0" standalone="no"?><!DOCTYPE svg PUBLIC "-//W3C//DTD SVG 1.1//EN" "http://www.w3.org/Graphics/SVG/1.1/DTD/svg11.dtd"><svg t="1602667968985" class="icon" viewBox="0 0 1024 1024" version="1.1" xmlns="http://www.w3.org/2000/svg" p-id="2721" xmlns:xlink="http://www.w3.org/1999/xlink" width="200" height="200"><defs><style type="text/css"></style></defs><path d="M674.4 911.2H194.2c-41.4 0-75.2-35-75.2-78V313.8c0-43 33.6-78 75.2-78h636.8c41.4 0 75.2 35 75.2 78V652c0 19.4-6.8 37.8-19.4 52.2l-156.6 181c-14.2 16.6-34.4 26-55.8 26zM194.2 281.8c-16 0-29 14.4-29 32v519.2c0 17.6 13 32 29 32h480.2c7.8 0 15.4-3.6 21-10L852 674c5.2-6 8-13.8 8-22V313.8c0-17.6-13-32-29-32H194.2z m0 0" fill="#D0011B" p-id="2722"></path><path d="M686.8 902.4c-13 0-23.8-10.6-23.8-23.8v-175c0-30.6 24.8-55.4 55.4-55.4h155.2c13 0 23.8 10.6 23.8 23.8 0 13-10.6 23.8-23.8 23.8h-155.2c-4.4 0-8 3.6-8 8v175c0.2 12.8-10.4 23.6-23.6 23.6z m0 0M599.2 711.2H382.8c-13 0-23.8-10.6-23.8-23.8 0-13.2 10.6-23.8 23.8-23.8h216.4c13 0 23.8 10.6 23.8 23.8 0 13.2-10.6 23.8-23.8 23.8z m-57-109h-159.4c-13 0-23.8-10.6-23.8-23.8 0-13 10.6-23.8 23.8-23.8h159.4c13 0 23.8 10.6 23.8 23.8 0 13.2-10.6 23.8-23.8 23.8z m85.4-109.2H382.8c-13 0-23.8-10.6-23.8-23.8 0-13 10.6-23.8 23.8-23.8h244.8c13 0 23.8 10.6 23.8 23.8 0 13.2-10.6 23.8-23.8 23.8z m0 0" fill="#D0011B" p-id="2723"></path><path d="M511.4 413h-14.2c-50.4 0-91.6-43.4-91.6-96.8v-55c0-9.2 7.6-16.8 16.8-16.8s16.8 7.6 16.8 16.8v55c0 34.8 26 63.2 58 63.2h14.2c32 0 58-28.4 58-63.2V157.8c0-9.2 7.6-16.8 16.8-16.8 9.2 0 16.8 7.6 16.8 16.8v158.4c0 53.4-41.2 96.8-91.6 96.8z m0 0" fill="#D0011B" p-id="2724"></path><path d="M505.6 362.2c-27.2 0-49.2-23-49.2-51.6V144.2c0-9.2 7.6-16.8 16.8-16.8 9.2 0 16.8 7.6 16.8 16.8v166.4c0 9.6 7 17.8 15.6 17.8 8.4 0 15.6-8.2 15.6-17.8v-61.2c0-9.2 7.6-16.8 16.8-16.8 9.2 0 16.8 7.6 16.8 16.8v61.2c0 28.6-22 51.6-49.2 51.6z m0 0" fill="#D0011B" p-id="2725"></path><path d="M586.2 299.6c-9.2 0-16.8-7.6-16.8-16.8V156.6c0-24.2-18-44-40-44s-40 19.8-40 44v126.2c0 9.2-7.6 16.8-16.8 16.8-9.2 0-16.8-7.6-16.8-16.8V156.6c0-42.8 33-77.6 73.6-77.6 40.6 0 73.6 34.8 73.6 77.6v126.2c0 9.2-7.6 16.8-16.8 16.8z m0 0" fill="#D0011B" p-id="2726"></path></svg>